<?xml version="1.0" standalone="no"?>
<!DOCTYPE svg PUBLIC "-//W3C//DTD SVG 20010904//EN"
 "http://www.w3.org/TR/2001/REC-SVG-20010904/DTD/svg10.dtd">
<svg version="1.0" xmlns="http://www.w3.org/2000/svg"
 width="6060.000000pt" height="2151.000000pt" viewBox="0 0 6060.000000 2151.000000"
 preserveAspectRatio="xMidYMid meet">

<g transform="translate(0.000000,2151.000000) scale(0.100000,-0.100000)"
fill="#000000" stroke="none">
<path d="M43080 18490 c-131 -5 -258 -14 -305 -23 -44 -8 -125 -23 -180 -32
-233 -39 -594 -144 -646 -189 -11 -9 -24 -16 -29 -16 -14 0 -12 -40 6 -101 8
-30 22 -76 29 -104 17 -60 82 -266 100 -315 31 -87 37 -107 45 -135 5 -16 18
-55 30 -85 12 -30 25 -66 30 -80 4 -14 14 -37 22 -51 14 -26 14 -26 63 -12
132 38 194 56 235 68 264 76 367 90 660 90 240 0 259 -1 318 -23 59 -21 162
-87 162 -104 0 -4 11 -19 24 -33 14 -15 35 -45 47 -68 59 -108 100 -186 119
-227 22 -45 27 -57 95 -205 20 -44 50 -109 67 -145 17 -36 34 -75 39 -87 9
-24 -7 -83 -22 -83 -5 0 -9 -5 -9 -12 0 -10 -220 -463 -295 -608 -27 -51 -52
-103 -103 -210 -20 -41 -40 -76 -44 -78 -4 -2 -8 -9 -8 -15 0 -7 -21 -53 -46
-102 -26 -50 -62 -121 -81 -160 -19 -38 -44 -88 -55 -110 -12 -22 -25 -47 -29
-55 -9 -19 -79 -160 -90 -180 -4 -8 -17 -35 -29 -60 -21 -44 -54 -110 -90
-180 -44 -85 -245 -477 -307 -600 -37 -74 -71 -137 -75 -140 -4 -3 -14 -21
-23 -40 -17 -38 -74 -145 -106 -198 -10 -18 -19 -40 -19 -48 0 -8 -4 -14 -9
-14 -5 0 -15 -15 -21 -34 -6 -19 -14 -36 -18 -38 -4 -2 -16 -21 -27 -43 -32
-65 -148 -280 -154 -285 -4 -3 -16 -25 -29 -50 -13 -25 -31 -58 -41 -75 -10
-16 -37 -66 -61 -110 -24 -44 -47 -81 -52 -83 -4 -2 -8 -12 -8 -23 0 -10 -4
-19 -8 -19 -4 0 -20 -24 -36 -52 -45 -86 -89 -163 -96 -168 -3 -3 -9 -12 -13
-20 -4 -8 -17 -32 -29 -52 -36 -58 -171 -277 -188 -303 -24 -38 -104 -166
-115 -184 -6 -9 -29 -44 -53 -79 -23 -35 -42 -67 -42 -72 0 -5 -3 -10 -7 -12
-5 -2 -35 -43 -68 -93 -33 -49 -63 -91 -67 -93 -5 -2 -8 -10 -8 -17 0 -7 -3
-15 -7 -17 -5 -1 -26 -30 -48 -63 -22 -33 -59 -86 -82 -117 -24 -31 -43 -61
-43 -67 0 -6 -4 -11 -9 -11 -4 0 -21 -19 -36 -42 -45 -69 -356 -482 -371 -494
-8 -6 -14 -16 -14 -23 0 -6 -7 -14 -15 -17 -8 -4 -15 -13 -15 -20 0 -8 -7 -17
-15 -20 -8 -4 -15 -10 -15 -15 0 -5 -8 -17 -17 -28 -49 -52 -73 -80 -73 -85 0
-3 -8 -14 -17 -25 -47 -49 -73 -80 -73 -84 0 -5 -33 -44 -90 -107 -19 -22 -55
-62 -80 -90 -137 -156 -403 -428 -540 -550 -46 -41 -91 -82 -100 -91 -9 -8
-24 -18 -33 -22 -9 -3 -17 -11 -17 -17 0 -5 -4 -10 -9 -10 -5 0 -23 -13 -39
-28 -29 -28 -161 -127 -230 -174 -18 -13 -39 -27 -45 -33 -31 -25 -77 -55 -85
-55 -5 0 -17 -9 -27 -20 -10 -11 -22 -20 -28 -20 -5 0 -21 -8 -35 -19 -38 -26
-112 -67 -217 -119 -49 -25 -99 -49 -110 -55 -46 -23 -48 -24 -160 -70 -255
-105 -503 -157 -751 -157 -134 0 -316 22 -371 45 -19 8 -42 15 -50 15 -15 0
-54 15 -133 52 -89 42 -229 141 -273 194 -12 14 -33 38 -47 53 -31 35 -49 61
-56 84 -4 9 -10 17 -14 17 -4 0 -33 53 -65 118 -31 64 -61 125 -66 134 -5 10
-9 24 -9 33 0 8 -6 29 -14 47 -27 63 -61 211 -92 405 -22 142 -22 612 0 779
32 235 64 405 92 495 8 26 14 54 14 64 0 16 18 78 45 155 7 19 21 62 30 95 10
33 24 72 31 87 8 14 14 31 14 38 0 7 7 28 16 48 8 21 22 52 29 70 8 18 21 47
28 65 21 48 83 169 106 208 12 19 24 41 28 49 4 8 26 43 50 78 24 35 43 67 43
72 0 4 7 10 15 14 8 3 15 12 15 21 0 8 4 15 8 15 5 0 23 20 41 46 59 81 298
329 376 389 21 17 46 37 55 45 28 25 79 60 88 60 5 0 15 7 22 15 7 8 24 21 39
28 14 7 35 18 46 24 11 6 36 17 55 26 19 8 56 24 83 36 26 11 55 21 63 21 9 0
37 7 63 15 185 58 421 83 618 66 220 -20 405 -80 573 -186 50 -31 192 -172
212 -210 20 -38 70 -138 79 -160 63 -142 74 -433 24 -620 -34 -124 -41 -148
-53 -171 -6 -10 -27 -55 -47 -99 -20 -44 -41 -87 -46 -95 -5 -8 -14 -27 -20
-42 -6 -16 -15 -28 -20 -28 -5 0 -9 -4 -9 -9 0 -9 -58 -103 -78 -126 -4 -5
-11 -18 -15 -27 -3 -10 -11 -18 -17 -18 -5 0 -10 -6 -10 -12 0 -12 -35 -57
-75 -99 -8 -9 -15 -18 -15 -22 0 -22 -359 -377 -381 -377 -5 0 -9 -4 -9 -9 0
-4 -17 -20 -37 -33 -21 -14 -50 -36 -64 -49 -40 -36 -69 -59 -75 -59 -2 0 -10
-5 -17 -10 -12 -11 -98 -73 -155 -112 -18 -13 -42 -31 -53 -40 -12 -10 -30
-20 -40 -23 -11 -4 -19 -11 -19 -16 0 -5 -4 -9 -10 -9 -5 0 -36 -17 -67 -37
-106 -69 -108 -70 -378 -210 -11 -6 -54 -26 -95 -45 -76 -35 -174 -84 -211
-104 -28 -16 -79 -75 -85 -99 -6 -23 27 -132 52 -169 13 -21 24 -26 59 -26 46
0 250 51 365 91 186 64 245 86 288 105 18 8 41 14 50 14 10 0 22 4 27 9 6 5
35 18 65 29 102 37 195 74 240 94 79 37 124 56 165 73 22 9 47 20 55 24 14 7
47 24 80 42 8 4 48 24 88 45 39 20 72 40 72 43 0 3 20 15 45 26 25 11 45 22
45 26 0 3 20 16 45 29 25 13 45 27 45 32 0 4 5 8 11 8 5 0 40 20 77 45 100 67
117 79 120 88 2 4 8 7 14 7 9 0 28 14 85 60 7 6 16 10 22 10 5 0 11 3 13 8 2
4 37 33 78 64 41 32 90 71 108 88 18 16 35 30 38 30 2 0 12 8 22 18 10 9 50
44 88 77 38 33 136 128 219 210 138 139 184 189 246 270 13 17 28 35 34 42 24
29 33 41 72 103 23 36 46 70 50 76 12 15 26 41 75 135 82 159 128 295 159 475
33 197 21 493 -28 664 -54 187 -169 368 -340 530 -103 98 -129 120 -143 120
-6 0 -10 4 -10 8 0 16 -150 109 -275 170 -186 92 -329 140 -500 170 -360 63
-1054 61 -1260 -2 -27 -9 -61 -16 -74 -16 -14 0 -54 -9 -90 -20 -36 -11 -95
-29 -131 -39 -67 -20 -169 -55 -205 -70 -11 -5 -45 -18 -75 -31 -30 -12 -63
-26 -72 -31 -10 -5 -26 -13 -35 -18 -10 -5 -40 -20 -68 -33 -47 -23 -147 -77
-223 -120 -58 -32 -247 -160 -250 -169 -2 -5 -8 -9 -13 -9 -13 0 -179 -134
-251 -202 -10 -10 -20 -18 -22 -18 -7 0 -240 -237 -281 -285 -22 -27 -56 -68
-76 -91 -20 -24 -52 -63 -70 -88 -18 -25 -36 -46 -41 -46 -4 0 -8 -7 -8 -15 0
-9 -7 -18 -15 -21 -8 -4 -15 -12 -15 -19 0 -7 -4 -15 -8 -17 -7 -2 -85 -116
-117 -169 -5 -9 -27 -45 -47 -78 -21 -34 -38 -66 -38 -72 0 -5 -4 -9 -8 -9 -4
0 -28 -39 -52 -87 -25 -49 -48 -89 -52 -91 -5 -2 -8 -9 -8 -15 0 -6 -21 -54
-46 -106 -25 -53 -51 -109 -58 -126 -21 -48 -53 -127 -69 -170 -8 -22 -22 -58
-30 -80 -9 -22 -23 -65 -32 -95 -10 -30 -24 -70 -31 -88 -8 -18 -14 -40 -14
-48 0 -9 -6 -37 -14 -63 -23 -73 -43 -150 -59 -226 -50 -236 -67 -336 -92
-555 -21 -187 -21 -709 0 -875 25 -201 61 -390 91 -486 8 -26 14 -54 14 -63 0
-8 6 -30 14 -48 7 -18 21 -58 31 -88 43 -140 179 -428 223 -472 6 -6 12 -15
12 -20 0 -7 98 -157 110 -168 3 -3 21 -25 40 -50 19 -25 47 -57 63 -72 15 -15
27 -30 27 -34 0 -8 132 -135 179 -172 19 -15 42 -34 51 -43 48 -46 272 -187
355 -223 22 -10 58 -26 80 -36 95 -43 152 -63 310 -105 79 -21 328 -52 485
-60 184 -10 522 16 755 57 175 30 284 60 450 123 39 15 82 30 97 35 15 5 40
15 55 23 28 14 98 46 163 74 19 8 43 20 54 25 223 117 268 141 284 156 7 6 17
12 22 12 8 0 132 79 157 100 7 5 16 10 21 10 5 0 17 9 27 20 10 11 24 20 31
20 7 0 14 3 16 8 2 4 28 25 58 47 30 22 57 43 58 47 2 5 8 8 13 8 5 0 17 8 27
17 35 33 62 53 72 53 6 0 10 4 10 8 0 4 21 24 48 44 26 21 69 58 95 83 27 25
50 45 53 45 2 0 29 25 59 55 31 30 58 55 60 55 2 0 57 53 122 118 147 147 271
284 398 437 22 26 48 55 58 64 9 8 17 19 17 23 0 5 8 16 18 26 9 10 28 32 42
50 14 18 33 43 44 55 40 47 206 266 206 271 0 3 8 14 18 24 17 18 137 186 157
220 6 9 12 19 15 22 6 5 117 168 135 198 6 9 14 21 18 26 7 9 39 58 107 161 8
12 29 46 45 74 17 28 33 51 38 51 4 0 7 4 7 9 0 6 13 29 28 53 16 24 38 59 48
78 10 19 26 42 34 52 8 9 24 34 35 55 11 21 22 40 25 43 11 10 80 132 80 141
0 5 3 9 8 9 4 0 18 21 32 48 14 26 35 63 48 82 13 19 28 44 33 55 5 11 18 34
29 50 11 17 24 39 30 50 6 11 19 34 30 50 19 30 25 41 74 130 15 28 36 64 46
80 10 17 31 52 45 79 44 81 50 91 56 96 3 3 27 46 55 95 27 50 54 99 61 110 7
11 17 29 22 40 6 11 22 38 36 60 14 22 30 52 36 68 6 15 15 27 20 27 5 0 9 9
9 20 0 11 4 20 9 20 5 0 14 12 20 28 6 15 19 41 29 57 10 17 36 62 57 100 21
39 50 93 65 120 15 28 38 70 51 93 13 24 38 69 56 100 17 32 43 80 58 107 37
70 136 254 209 385 20 36 48 88 62 115 14 28 36 68 49 90 13 22 36 65 51 95
15 30 30 57 33 60 3 3 19 30 34 60 29 57 108 206 187 355 25 46 70 133 100
192 30 59 58 112 63 118 9 13 80 147 149 285 29 58 55 107 59 110 3 3 25 44
50 92 64 128 77 152 86 163 4 6 20 35 35 65 15 30 41 78 58 105 16 28 33 57
37 65 28 60 92 150 107 150 4 0 36 -65 60 -125 15 -37 37 -87 60 -140 10 -22
24 -53 30 -70 7 -16 20 -46 28 -65 9 -19 26 -60 37 -90 25 -63 38 -94 86 -205
7 -16 23 -55 34 -85 22 -55 31 -78 56 -135 7 -16 23 -55 35 -85 11 -30 27 -68
35 -85 19 -44 31 -74 56 -135 11 -30 27 -68 34 -85 25 -58 34 -80 55 -135 12
-30 26 -64 30 -75 5 -11 19 -45 31 -75 20 -53 28 -71 62 -150 9 -19 30 -71 47
-115 18 -44 38 -93 45 -110 8 -16 30 -70 50 -120 37 -92 47 -117 70 -170 7
-16 23 -55 34 -85 25 -63 38 -94 86 -205 7 -16 23 -55 34 -85 35 -89 69 -168
82 -190 22 -40 149 -299 149 -306 0 -4 13 -35 29 -68 52 -111 91 -196 91 -201
0 -3 14 -35 31 -72 50 -113 55 -124 104 -243 26 -63 54 -130 61 -147 8 -18 21
-47 29 -65 8 -18 27 -62 42 -98 44 -102 201 -408 241 -471 15 -23 56 -89 95
-154 7 -11 14 -22 17 -25 3 -3 23 -32 45 -65 53 -82 156 -218 172 -228 7 -4
13 -12 13 -17 0 -17 215 -240 232 -240 4 0 8 -4 8 -8 0 -4 33 -33 73 -63 39
-29 74 -57 75 -61 2 -5 8 -8 12 -8 5 0 30 -15 55 -32 26 -18 55 -38 65 -43 10
-6 24 -16 31 -22 16 -12 118 -69 164 -90 17 -8 38 -18 47 -24 10 -5 27 -9 38
-9 13 0 20 -6 20 -17 -1 -22 -46 -44 -210 -103 -197 -71 -259 -92 -280 -97
-14 -3 -30 -9 -35 -14 -6 -4 -44 -20 -85 -34 -41 -14 -88 -33 -105 -40 -16 -8
-83 -37 -147 -64 -64 -28 -125 -54 -135 -59 -10 -6 -43 -21 -73 -35 -99 -45
-263 -127 -345 -172 -44 -25 -90 -49 -103 -55 -12 -5 -46 -25 -75 -43 -28 -18
-73 -43 -99 -56 -25 -12 -52 -29 -58 -37 -7 -7 -16 -14 -21 -14 -5 0 -33 -16
-63 -35 -30 -19 -58 -35 -61 -35 -3 0 -28 -16 -55 -35 -27 -19 -52 -35 -55
-35 -2 0 -41 -25 -85 -55 -44 -30 -84 -55 -89 -55 -4 0 -16 -9 -26 -20 -10
-11 -23 -20 -30 -20 -7 0 -20 -9 -30 -20 -10 -11 -22 -20 -27 -20 -9 0 -62
-36 -86 -57 -7 -7 -17 -13 -22 -13 -5 0 -15 -6 -22 -12 -25 -24 -77 -58 -88
-58 -5 0 -10 -4 -10 -8 0 -5 -12 -15 -27 -23 -31 -16 -35 -18 -79 -54 -18 -14
-36 -25 -42 -25 -6 0 -12 -4 -14 -8 -1 -5 -34 -30 -73 -56 -38 -27 -79 -57
-91 -67 -11 -11 -25 -19 -31 -19 -6 0 -13 -3 -15 -7 -1 -5 -48 -42 -102 -83
-55 -41 -119 -94 -143 -117 -40 -40 -46 -43 -98 -43 -31 0 -84 9 -118 20 -34
11 -136 43 -227 71 -91 28 -187 59 -215 69 -81 28 -115 40 -200 67 -44 13 -96
31 -115 38 -38 14 -171 56 -260 82 -30 9 -82 24 -115 34 -264 79 -456 119
-685 144 -166 18 -696 21 -820 5 -41 -6 -113 -15 -160 -20 -76 -9 -122 -18
-270 -52 -25 -6 -61 -14 -80 -18 -19 -4 -57 -16 -85 -25 -233 -83 -286 -105
-382 -154 -20 -10 -108 -54 -168 -84 -22 -11 -42 -22 -45 -26 -3 -3 -23 -15
-45 -26 -22 -11 -63 -34 -92 -52 -29 -18 -57 -33 -63 -33 -5 0 -10 -4 -10 -8
0 -5 -12 -15 -27 -23 -16 -8 -30 -17 -33 -20 -3 -3 -36 -27 -75 -54 -75 -52
-282 -214 -333 -261 -150 -139 -259 -255 -353 -374 -24 -30 -46 -56 -51 -58
-4 -2 -8 -10 -8 -18 0 -8 -7 -17 -15 -20 -8 -4 -15 -11 -15 -16 0 -6 -13 -27
-29 -47 -16 -20 -39 -54 -51 -76 -12 -22 -30 -53 -41 -70 -10 -16 -24 -42 -30
-57 -6 -16 -15 -28 -20 -28 -5 0 -9 -6 -9 -12 0 -7 -14 -42 -32 -78 -17 -36
-37 -78 -43 -95 -7 -16 -20 -47 -29 -68 -9 -21 -16 -44 -16 -52 0 -8 -6 -29
-14 -47 -56 -131 -106 -414 -106 -595 0 -79 22 -265 41 -338 19 -79 59 -184
101 -266 34 -69 43 -84 87 -149 56 -83 273 -300 300 -300 4 0 16 -9 26 -20 10
-11 24 -20 30 -20 7 0 18 -6 24 -14 18 -22 230 -123 301 -143 58 -16 106 -18
435 -18 434 0 549 14 713 86 23 11 51 19 62 19 10 0 21 4 24 9 3 5 18 12 33
16 16 3 48 16 73 27 25 11 59 26 75 33 98 43 156 69 200 92 129 66 218 114
243 131 15 10 48 29 74 41 25 12 52 29 58 37 7 7 17 14 22 14 5 0 34 16 64 35
30 19 59 35 64 35 6 0 10 4 10 8 0 5 12 15 28 23 39 20 156 101 160 111 2 4 8
8 14 8 5 0 20 8 33 17 12 10 33 25 45 33 25 17 115 82 145 105 118 88 142 106
155 117 8 7 32 24 55 38 42 27 46 27 130 -2 17 -5 46 -13 65 -17 19 -4 49 -15
67 -24 18 -9 41 -17 53 -17 12 0 35 -8 53 -17 18 -9 48 -20 67 -24 19 -4 51
-13 70 -19 112 -39 146 -50 255 -84 66 -21 143 -46 170 -55 44 -16 377 -124
565 -183 36 -12 81 -27 100 -34 19 -7 69 -22 110 -33 41 -12 102 -30 135 -40
33 -10 87 -26 120 -36 100 -28 191 -54 263 -75 37 -10 91 -26 121 -35 29 -8
60 -15 69 -15 9 0 45 -9 81 -19 100 -30 209 -59 281 -75 36 -8 103 -24 150
-35 107 -25 242 -55 345 -75 44 -9 114 -24 155 -33 41 -9 98 -20 125 -24 28
-3 75 -11 105 -17 58 -11 217 -39 410 -71 173 -29 539 -77 835 -110 358 -40
810 -55 1260 -41 706 22 935 37 1180 80 61 10 153 26 205 35 89 15 146 28 315
70 39 9 90 21 115 26 25 5 77 18 115 29 39 12 99 30 135 40 70 20 201 65 375
127 40 14 86 34 168 71 23 11 65 29 93 41 84 34 349 173 406 212 14 11 29 19
32 19 4 0 16 9 28 20 12 11 28 20 35 20 7 0 13 4 13 8 0 5 11 14 24 20 14 6
33 18 43 26 10 8 63 49 118 92 55 42 124 100 154 128 99 93 181 175 181 181 0
3 14 19 30 35 17 16 30 34 30 40 0 5 3 10 8 10 9 0 97 117 132 175 13 22 26
42 29 45 12 11 133 243 144 277 4 10 13 34 20 53 88 220 143 499 139 705 -2
144 -44 413 -72 466 -6 10 -10 28 -10 41 0 13 -7 32 -15 42 -8 11 -15 26 -15
34 0 14 -52 134 -70 162 -5 8 -22 36 -37 62 -16 27 -31 48 -35 48 -5 0 -8 7
-8 15 0 9 -7 18 -15 21 -8 4 -15 11 -15 16 0 10 -25 40 -87 105 -18 18 -33 36
-33 40 0 3 -33 37 -72 75 -106 100 -126 118 -193 170 -33 27 -65 52 -72 58 -7
5 -15 10 -19 10 -4 0 -15 7 -24 15 -28 25 -242 132 -324 160 -42 15 -79 32
-82 36 -3 5 -15 9 -26 9 -12 0 -46 9 -77 19 -54 18 -110 31 -306 67 -100 18
-265 30 -577 40 -467 16 -1024 -41 -1453 -148 -221 -55 -321 -83 -390 -109
-28 -10 -58 -19 -67 -19 -10 0 -32 -6 -50 -14 -34 -14 -47 -18 -183 -66 -73
-26 -125 -47 -210 -85 -16 -7 -50 -21 -75 -31 -55 -21 -171 -75 -357 -165 -77
-38 -144 -69 -148 -69 -4 0 -19 -8 -33 -19 -24 -17 -72 -43 -252 -137 -30 -16
-61 -35 -69 -42 -8 -8 -24 -18 -35 -23 -12 -5 -39 -20 -61 -34 -22 -14 -47
-28 -55 -32 -8 -3 -40 -23 -70 -43 -31 -20 -62 -39 -70 -43 -8 -4 -33 -19 -55
-32 -22 -14 -48 -28 -57 -32 -10 -3 -18 -9 -18 -13 0 -4 -11 -12 -25 -18 -14
-7 -31 -16 -38 -22 -53 -43 -76 -60 -81 -60 -8 0 -116 -80 -131 -96 -5 -6 -27
-23 -47 -39 -67 -48 -50 -75 72 -116 19 -7 40 -16 47 -21 7 -6 27 -14 45 -18
18 -5 49 -14 68 -21 248 -88 609 -189 676 -189 11 0 39 11 64 25 25 13 60 32
78 41 17 10 32 21 32 26 0 4 6 8 13 8 8 0 22 9 32 20 10 11 23 20 30 20 7 0
20 9 30 20 10 11 22 20 27 20 4 0 30 15 56 33 26 18 54 36 62 40 8 4 33 18 55
31 76 45 327 174 390 201 50 21 117 52 170 76 22 11 48 19 57 19 9 0 19 4 23
9 3 5 20 13 38 16 17 4 46 14 62 23 17 8 44 19 60 23 17 4 46 13 65 20 128 45
198 66 345 103 273 68 617 91 980 66 298 -21 544 -76 726 -163 31 -15 60 -27
65 -27 8 -1 87 -49 185 -114 53 -35 209 -188 209 -204 0 -7 5 -12 10 -12 6 0
15 -10 20 -22 6 -13 19 -36 30 -53 28 -43 48 -90 76 -175 34 -108 35 -287 0
-392 -38 -115 -111 -245 -153 -271 -7 -4 -13 -12 -13 -17 0 -13 -37 -50 -50
-50 -5 0 -10 -4 -10 -9 0 -8 -94 -84 -135 -108 -226 -134 -522 -208 -875 -219
-290 -9 -480 6 -830 62 -181 30 -579 124 -775 183 -33 10 -89 26 -125 36 -36
9 -87 25 -115 34 -27 10 -70 23 -95 30 -74 20 -99 28 -240 76 -74 26 -148 51
-165 55 -16 5 -68 22 -115 40 -47 17 -94 34 -105 36 -11 3 -29 10 -40 14 -28
13 -133 50 -175 62 -19 5 -40 15 -47 20 -7 6 -27 14 -45 18 -18 5 -64 20 -103
35 -38 15 -81 31 -95 35 -14 5 -50 18 -80 30 -30 12 -77 30 -105 40 -27 10
-75 27 -105 39 -30 12 -71 28 -90 35 -19 8 -59 23 -87 35 -54 21 -129 51 -193
75 -19 8 -59 23 -87 35 -99 39 -158 62 -203 77 -25 9 -49 20 -55 25 -5 5 -19
9 -31 9 -13 0 -25 4 -29 9 -3 5 -29 17 -58 26 -28 10 -56 21 -62 26 -5 5 -19
9 -31 9 -13 0 -25 4 -29 9 -3 5 -22 15 -43 21 -20 7 -50 18 -67 25 -102 42
-222 90 -275 110 -73 28 -142 56 -186 76 -23 11 -45 19 -49 19 -4 0 -21 6 -38
14 -18 7 -57 23 -87 36 -30 12 -68 28 -85 35 -16 7 -50 22 -75 32 -131 56
-125 52 -104 71 11 9 31 23 47 31 15 8 27 18 27 23 0 4 6 8 13 8 7 0 23 9 35
20 12 11 24 20 27 20 4 0 52 30 107 66 56 36 112 71 125 77 12 5 23 13 23 17
0 4 14 13 30 20 17 7 30 16 30 20 0 4 14 13 30 20 17 7 30 16 30 20 0 4 8 10
18 13 22 8 88 47 174 103 37 24 70 44 73 44 3 0 24 11 46 26 38 24 81 49 139
81 14 8 45 26 70 40 80 45 233 125 325 170 85 42 100 50 143 72 33 19 248 118
292 136 25 10 63 26 85 36 107 47 133 59 175 74 51 19 129 50 178 71 18 8 41
14 50 14 10 0 22 4 27 9 10 9 131 54 190 71 17 4 46 14 65 20 113 39 142 49
205 68 39 12 97 29 130 37 33 9 88 25 122 36 34 10 70 19 79 19 10 0 47 9 83
19 36 11 104 27 151 36 47 9 126 25 175 36 50 10 100 19 113 19 13 0 60 7 105
15 231 40 683 89 1007 107 289 17 884 17 1115 0 285 -20 651 -70 1300 -178
187 -32 445 -83 545 -109 84 -22 211 -48 215 -44 31 31 -28 441 -110 769 -8
30 -23 91 -33 135 -25 100 -53 164 -83 191 -26 22 -104 40 -214 49 -125 10
-417 50 -745 101 -145 23 -285 54 -390 86 -101 31 -133 45 -275 115 -89 44
-103 51 -200 107 -72 41 -182 115 -196 132 -6 8 -15 14 -20 14 -5 0 -19 9 -31
20 -44 39 -58 50 -63 50 -2 0 -15 10 -28 23 -13 12 -44 40 -68 63 -68 63 -249
258 -249 268 0 3 -14 20 -30 38 -49 54 -53 58 -144 178 -49 63 -92 116 -97
118 -5 2 -9 8 -9 14 0 5 -19 35 -43 66 -40 53 -109 152 -132 190 -5 9 -12 19
-15 22 -7 6 -102 150 -110 165 -3 6 -23 37 -45 70 -46 70 -61 94 -71 115 -4 8
-19 33 -33 55 -14 22 -30 49 -36 60 -6 11 -30 55 -54 98 -59 109 -125 242
-150 307 -21 53 -27 68 -56 135 -7 17 -21 50 -30 75 -10 25 -31 73 -47 108
-15 35 -28 67 -28 72 0 5 -6 21 -14 37 -8 15 -31 69 -51 118 -20 50 -40 98
-45 107 -6 10 -10 23 -10 29 0 6 -6 25 -14 42 -13 31 -33 82 -63 162 -9 22
-22 54 -29 72 -8 17 -14 38 -14 46 0 9 -4 18 -9 21 -5 3 -12 18 -15 33 -4 16
-13 42 -20 58 -8 17 -21 48 -29 70 -45 121 -74 197 -93 242 -8 17 -14 35 -14
41 0 5 -7 23 -15 38 -8 16 -15 37 -15 46 0 9 -4 19 -9 22 -5 3 -12 18 -16 33
-3 15 -15 46 -26 70 -10 23 -19 48 -19 55 0 8 -4 18 -8 24 -8 9 -38 84 -96
242 -22 59 -48 124 -62 159 -8 17 -14 38 -14 46 0 9 -4 18 -9 22 -5 3 -13 20
-16 38 -4 17 -13 43 -20 57 -12 23 -20 45 -60 150 -15 41 -35 93 -62 165 -9
22 -22 54 -29 72 -8 17 -14 37 -14 45 0 8 -4 18 -8 24 -8 9 -32 70 -96 242 -8
20 -28 73 -46 117 -32 79 -50 127 -75 195 -7 19 -27 71 -45 115 -18 44 -39 98
-47 120 -8 22 -24 58 -34 81 -10 23 -19 46 -19 52 0 6 -6 23 -14 39 -8 15 -24
53 -36 83 -12 30 -25 64 -29 75 -5 11 -15 38 -24 60 -20 53 -56 145 -66 170
-5 11 -17 40 -26 65 -10 25 -24 59 -31 77 -8 17 -14 37 -14 45 0 7 -7 22 -15
32 -8 11 -15 29 -15 40 0 12 -7 30 -15 40 -8 11 -15 26 -15 34 0 8 -6 28 -13
45 -37 85 -40 108 -21 127 19 18 133 70 155 70 13 0 241 111 249 121 3 3 15
12 28 18 25 13 53 34 84 64 10 9 20 17 24 17 9 0 74 74 80 93 3 9 10 17 15 17
5 0 9 7 9 15 0 8 3 15 8 15 7 0 26 35 76 140 49 104 83 217 96 315 5 39 13 90
19 115 5 24 9 46 7 47 -1 1 -24 -5 -51 -13 -194 -59 -613 -82 -1186 -65 -456
13 -864 34 -1194 62 -132 10 -262 19 -290 19 -27 0 -138 9 -245 19 -775 78
-1720 113 -2430 91z m2880 -1076 c0 -9 7 -32 16 -52 8 -21 21 -50 28 -67 8
-16 21 -50 31 -75 9 -25 23 -58 30 -75 7 -16 20 -50 30 -75 10 -25 21 -54 26
-65 4 -11 18 -45 30 -75 12 -30 28 -69 35 -87 8 -17 14 -36 14 -41 0 -6 6 -23
14 -39 8 -15 22 -48 31 -73 10 -25 24 -60 31 -77 8 -18 20 -48 28 -65 7 -18
21 -53 31 -78 9 -25 23 -58 31 -73 8 -16 14 -33 14 -39 0 -5 6 -24 14 -41 7
-18 21 -52 31 -77 9 -25 23 -58 30 -75 12 -29 58 -138 75 -180 4 -11 15 -40
25 -65 9 -25 23 -58 31 -73 8 -16 14 -33 14 -39 0 -5 6 -24 14 -41 7 -18 21
-52 31 -77 10 -25 23 -58 30 -75 7 -16 21 -50 30 -75 10 -25 21 -54 26 -65 10
-24 45 -114 66 -170 9 -22 21 -53 29 -70 7 -16 23 -57 35 -90 13 -33 27 -64
31 -69 4 -6 8 -16 8 -24 0 -8 6 -28 14 -45 7 -18 20 -50 29 -72 30 -80 50
-131 63 -162 8 -17 14 -36 14 -41 0 -6 6 -23 14 -39 8 -15 21 -46 29 -68 8
-22 29 -76 47 -120 18 -44 38 -97 46 -117 39 -105 47 -126 64 -163 10 -22 25
-58 33 -80 17 -45 54 -140 66 -170 5 -11 16 -39 25 -62 37 -97 49 -130 62
-160 8 -17 14 -37 14 -45 0 -8 4 -18 8 -23 7 -9 22 -47 69 -170 8 -22 21 -53
29 -68 8 -16 14 -33 14 -39 0 -5 6 -24 14 -41 17 -40 39 -97 90 -234 30 -80
78 -199 92 -226 8 -16 14 -33 14 -39 0 -5 6 -24 14 -41 7 -18 21 -52 31 -77
17 -41 38 -93 67 -160 13 -32 29 -68 67 -153 17 -38 31 -74 31 -80 0 -7 9 -23
20 -37 11 -14 20 -28 20 -32 0 -8 57 -137 70 -158 9 -15 63 -125 81 -165 9
-19 22 -43 113 -210 45 -81 138 -238 147 -245 3 -3 9 -12 13 -20 11 -23 27
-48 81 -128 28 -41 55 -81 60 -90 6 -10 13 -19 16 -22 3 -3 40 -50 82 -105 41
-55 85 -112 98 -126 13 -14 39 -43 58 -65 63 -72 207 -218 281 -284 40 -36 84
-75 97 -87 13 -13 28 -23 33 -23 4 0 10 -4 12 -8 2 -5 48 -46 102 -92 55 -46
113 -97 129 -114 l29 -31 -28 -4 c-36 -4 -240 24 -359 50 -287 64 -468 126
-593 205 -29 19 -54 34 -57 34 -5 0 -39 27 -67 53 -10 9 -21 17 -24 17 -3 0
-30 25 -61 55 -31 30 -59 55 -62 56 -19 3 -291 341 -341 424 -13 22 -26 42
-29 45 -8 7 -24 34 -57 95 -15 28 -29 52 -33 55 -3 3 -17 28 -30 55 -14 28
-27 52 -30 55 -6 5 -183 361 -206 415 -7 17 -26 59 -43 95 -49 104 -92 200
-92 205 0 3 -13 33 -29 67 -15 35 -49 115 -75 178 -26 63 -56 133 -65 155 -31
68 -48 108 -66 155 -10 25 -23 59 -31 75 -7 17 -20 46 -28 67 -9 20 -16 41
-16 46 0 6 -6 23 -14 39 -26 50 -46 101 -46 115 0 8 -4 18 -8 23 -4 6 -18 37
-31 70 -13 33 -29 74 -36 90 -7 17 -23 55 -35 85 -11 30 -25 64 -29 75 -5 11
-16 40 -26 65 -9 25 -23 58 -31 73 -8 16 -14 33 -14 39 0 5 -6 24 -14 41 -17
40 -73 179 -93 232 -9 22 -21 54 -28 70 -7 17 -21 50 -30 75 -10 25 -23 59
-30 75 -7 17 -21 50 -30 75 -10 25 -23 59 -30 75 -7 17 -21 50 -30 75 -10 25
-27 65 -38 90 -24 52 -38 87 -62 150 -10 25 -23 59 -30 75 -29 68 -35 82 -56
135 -11 30 -27 69 -34 85 -7 17 -21 50 -30 75 -10 25 -23 59 -30 75 -29 68
-35 82 -55 135 -12 30 -26 64 -30 75 -5 11 -19 45 -31 75 -11 30 -27 69 -34
85 -25 57 -34 80 -56 135 -11 30 -27 69 -34 85 -29 68 -68 160 -89 215 -10 25
-24 59 -31 75 -26 61 -35 82 -71 170 -20 50 -42 104 -50 120 -42 96 -67 153
-76 175 -12 29 -32 77 -52 125 -9 20 -22 51 -30 70 -9 20 -22 50 -30 68 -7 17
-35 84 -61 147 -26 63 -54 130 -61 147 -8 18 -21 47 -28 65 -62 148 -128 289
-170 365 -21 37 -22 42 -7 46 9 3 172 5 364 6 312 1 347 -1 347 -15z m-3960
-9833 c199 -13 452 -60 700 -131 36 -10 94 -26 130 -35 36 -10 90 -25 120 -35
62 -19 182 -56 250 -75 114 -33 215 -67 231 -78 13 -10 15 -16 6 -27 -15 -19
-102 -90 -111 -90 -3 0 -14 -8 -24 -17 -10 -10 -29 -26 -42 -35 -14 -10 -50
-36 -80 -58 -30 -21 -70 -49 -88 -62 -18 -13 -39 -29 -47 -35 -7 -7 -18 -13
-23 -13 -5 0 -17 -9 -27 -20 -10 -11 -24 -20 -31 -20 -7 0 -14 -4 -16 -8 -1
-5 -29 -27 -62 -49 -57 -39 -59 -39 -100 -27 -22 7 -66 20 -96 28 -144 40
-209 60 -254 77 -27 11 -57 19 -67 19 -10 0 -36 6 -56 13 -69 25 -252 77 -388
110 -33 9 -96 24 -140 35 -125 31 -270 60 -385 76 -428 61 -672 82 -800 71
-56 -5 -80 -4 -80 4 0 13 36 51 48 51 5 0 17 8 28 18 10 9 57 36 104 60 47 23
96 49 110 57 14 8 43 22 65 31 22 9 58 25 80 35 168 76 323 117 485 129 149
10 402 10 560 1z m2250 -661 c40 -9 87 -25 147 -52 24 -10 46 -18 50 -18 5 0
28 -10 53 -22 25 -12 59 -27 75 -33 17 -7 50 -21 75 -32 25 -11 65 -28 90 -38
25 -10 64 -26 87 -37 92 -41 139 -62 158 -69 31 -12 304 -129 355 -152 72 -33
133 -60 155 -68 11 -4 40 -16 65 -27 25 -11 74 -32 110 -47 68 -27 97 -39 170
-72 25 -11 65 -28 90 -38 25 -9 59 -23 75 -30 27 -12 149 -64 200 -84 102 -42
134 -55 160 -66 17 -8 55 -23 85 -35 30 -12 75 -30 100 -40 25 -10 65 -25 90
-35 25 -9 63 -25 85 -36 22 -10 47 -19 56 -19 8 0 19 -4 25 -9 5 -5 29 -16 54
-25 46 -15 107 -39 203 -77 46 -19 168 -64 267 -99 19 -7 44 -17 55 -22 26
-11 241 -86 280 -98 37 -10 86 -27 145 -50 61 -24 139 -50 175 -60 36 -10 119
-40 195 -70 30 -12 69 -27 85 -34 75 -29 74 -37 -5 -32 -41 2 -113 9 -160 16
-47 6 -151 20 -232 30 -288 39 -454 62 -538 75 -47 8 -101 16 -120 18 -19 2
-75 11 -125 21 -189 36 -292 57 -355 72 -36 8 -74 14 -85 14 -11 0 -51 9 -90
19 -38 10 -106 27 -150 36 -87 18 -201 46 -310 75 -38 10 -99 26 -135 35 -67
16 -143 37 -265 73 -38 11 -99 28 -135 37 -36 9 -90 25 -120 35 -30 9 -91 27
-135 40 -44 12 -95 28 -113 36 -18 8 -40 14 -50 14 -9 0 -39 8 -67 19 -85 32
-119 43 -155 50 -19 4 -49 15 -67 24 -18 9 -38 17 -45 17 -7 0 -35 8 -63 19
-66 24 -113 41 -150 51 -16 5 -55 18 -85 29 -98 36 -314 112 -345 121 -16 5
-61 21 -100 35 -38 14 -88 32 -110 40 -22 7 -65 23 -95 35 -30 12 -64 24 -75
27 -11 3 -39 14 -62 24 -24 10 -47 19 -52 19 -17 0 -71 35 -71 46 0 15 138
131 230 194 57 39 127 90 143 104 9 9 19 16 22 16 3 0 13 7 22 15 120 98 148
116 173 109 14 -4 41 -10 60 -14z m-3440 -634 c149 -22 339 -63 490 -106 36
-10 101 -28 145 -40 44 -12 91 -27 105 -33 14 -5 41 -13 60 -17 43 -9 122 -37
176 -61 23 -11 46 -19 52 -19 38 0 11 -41 -63 -96 -22 -16 -42 -31 -45 -34 -3
-3 -17 -11 -32 -19 -16 -8 -28 -18 -28 -23 0 -4 -5 -8 -11 -8 -5 0 -48 -25
-94 -55 -47 -30 -89 -55 -95 -55 -5 0 -10 -4 -10 -9 0 -5 -12 -14 -27 -20 -30
-11 -55 -26 -141 -78 -29 -18 -55 -33 -59 -33 -4 0 -41 -16 -83 -37 -167 -81
-242 -107 -465 -165 -80 -20 -113 -23 -295 -23 -195 1 -209 2 -285 27 -115 38
-176 71 -240 131 -16 15 -33 27 -37 27 -5 0 -8 7 -8 15 0 7 -6 18 -12 22 -37
23 -78 154 -78 248 0 70 20 152 52 210 17 32 95 108 131 126 12 7 24 15 27 19
7 10 82 42 155 67 51 18 105 29 265 57 52 9 340 -3 450 -18z"/>
<path d="M17929 17639 c-192 -6 -260 -13 -365 -34 -363 -73 -838 -211 -1109
-321 -258 -106 -644 -330 -935 -543 -432 -316 -754 -709 -1020 -1243 -274
-551 -410 -1100 -412 -1663 -1 -246 6 -288 55 -310 31 -14 154 -41 632 -140
468 -97 812 -180 1143 -275 116 -33 219 -60 230 -60 38 0 53 90 72 420 32 564
111 952 264 1300 229 521 687 899 1270 1050 224 58 279 64 566 64 247 0 275
-2 404 -27 504 -99 930 -365 1166 -727 304 -469 407 -1338 233 -1960 -95 -338
-318 -811 -551 -1165 -614 -933 -2313 -2591 -3777 -3685 -417 -312 -981 -712
-1287 -914 -142 -93 -179 -122 -189 -149 -18 -47 -22 -364 -14 -975 l7 -522
4146 2 4146 3 13 50 c28 104 89 417 239 1230 213 1155 244 1343 244 1478 l0
58 -52 24 c-134 61 -486 145 -544 131 -47 -12 -98 -78 -168 -215 -192 -377
-371 -537 -745 -661 -214 -72 -362 -85 -1111 -99 -763 -15 -2180 -22 -2537
-14 -341 9 -351 11 -323 60 8 15 60 63 115 108 100 80 188 145 995 730 1181
858 1862 1391 2375 1860 186 170 588 575 739 745 495 556 753 1004 939 1630
113 378 137 533 144 940 8 431 -13 711 -77 1030 -123 613 -417 1139 -915 1635
-529 528 -1212 873 -2060 1043 -531 107 -1101 139 -1946 111z"/>
<path d="M34426 17608 c-3 -13 -10 -293 -16 -623 -6 -330 -16 -636 -21 -680
-28 -225 -39 -280 -73 -355 -45 -97 -136 -193 -268 -280 -46 -30 -46 -41 -22
-260 14 -134 33 -203 59 -222 20 -15 71 -7 155 23 47 17 94 33 105 36 11 4 46
24 78 45 32 21 60 38 63 38 7 0 57 44 113 101 78 78 121 132 138 169 4 8 10
17 13 20 6 4 43 81 70 145 39 94 57 296 71 805 5 190 13 386 19 435 5 50 10
100 10 113 l0 22 265 0 265 0 0 -958 0 -958 176 -17 c229 -21 239 -18 276 98
10 31 13 293 16 1183 l3 1142 -746 0 -745 0 -4 -22z"/>
<path d="M36618 16428 c2 -922 6 -1204 15 -1210 15 -9 1150 -11 1340 -1 l136
6 11 30 c13 40 13 144 -2 295 l-11 122 -499 0 -498 0 2 263 3 262 423 3 422 2
0 225 0 225 -425 0 -425 0 0 245 0 245 485 0 485 0 0 245 0 245 -732 0 -733 0
3 -1202z"/>
<path d="M38560 17385 l0 -245 310 0 310 0 0 -980 0 -980 255 0 255 0 0 980 0
980 325 0 325 0 0 245 0 245 -890 0 -890 0 0 -245z"/>
<path d="M26788 17400 c-520 -3 -948 -7 -951 -10 -4 -5 -292 -1732 -752 -4510
-233 -1406 -317 -1961 -301 -1977 29 -29 859 -299 1003 -326 47 -9 87 24 173
143 168 234 496 531 820 742 215 141 585 304 831 367 271 69 445 85 839 78
297 -6 426 -17 619 -52 423 -79 754 -258 1086 -590 430 -429 635 -995 635
-1753 0 -785 -224 -1384 -686 -1832 -411 -399 -951 -600 -1609 -600 -334 0
-619 46 -945 151 -601 196 -1042 509 -1426 1014 -34 44 -130 181 -214 305
-207 305 -235 340 -268 340 -41 -1 -130 -41 -244 -110 -206 -127 -550 -347
-860 -553 -306 -202 -318 -211 -318 -242 0 -90 244 -464 520 -795 278 -333
566 -593 915 -824 320 -212 601 -355 977 -494 652 -243 1472 -361 2243 -323
1041 52 1884 274 2600 686 1034 593 1749 1551 1965 2634 38 192 47 283 61 606
14 344 1 637 -36 840 -193 1059 -677 1856 -1471 2423 -368 263 -891 503 -1339
616 -477 120 -1096 171 -1757 146 -784 -29 -1190 -124 -1913 -445 -361 -160
-395 -172 -395 -138 0 39 423 2349 431 2358 3 2 1305 9 2895 15 1589 6 2892
14 2895 18 14 14 359 2021 359 2085 0 16 -135 17 -2717 15 -1495 -2 -3144 -5
-3665 -8z"/>
<path d="M9890 17197 c-129 -90 -456 -313 -725 -497 -534 -364 -1416 -969
-1587 -1088 -60 -41 -108 -81 -108 -88 0 -18 245 -706 346 -972 81 -211 186
-457 203 -475 5 -5 163 94 352 219 385 254 1094 718 1151 752 28 18 38 20 45
10 12 -19 7 -5489 -6 -6383 -11 -785 -21 -1034 -47 -1144 -31 -136 -132 -270
-250 -329 -163 -82 -340 -108 -942 -137 -162 -7 -295 -15 -297 -17 -6 -6 -35
-912 -35 -1090 0 -161 2 -177 18 -182 64 -21 766 -28 2993 -33 l2446 -5 17
128 c25 194 36 393 36 659 -1 282 -12 432 -37 484 -25 49 -61 60 -214 60 -367
2 -652 56 -839 159 -85 47 -208 169 -244 244 -16 33 -31 87 -37 130 -25 201
-31 996 -39 5273 -4 2464 -8 4481 -9 4483 0 1 -441 2 -978 2 l-978 -1 -235
-162z"/>
</g>
</svg>
