<?xml version="1.0" standalone="no"?>
<!DOCTYPE svg PUBLIC "-//W3C//DTD SVG 20010904//EN"
 "http://www.w3.org/TR/2001/REC-SVG-20010904/DTD/svg10.dtd">
<svg version="1.0" xmlns="http://www.w3.org/2000/svg"
 width="1024.000000pt" height="1024.000000pt" viewBox="0 0 1024.000000 1024.000000"
 preserveAspectRatio="xMidYMid meet">

<g transform="translate(0.000000,1024.000000) scale(0.100000,-0.100000)"
fill="#000000" stroke="none">
<path d="M4245 9613 c-71 -10 -227 -53 -298 -83 -82 -34 -192 -102 -267 -164
-176 -147 -300 -421 -300 -662 0 -68 2 -74 23 -79 12 -3 87 -19 167 -35 80
-17 177 -40 215 -51 39 -11 77 -22 86 -25 14 -4 17 12 22 113 12 212 63 351
166 445 198 182 546 162 700 -38 79 -103 112 -300 77 -464 -19 -91 -89 -238
-158 -334 -168 -233 -502 -559 -848 -827 -93 -72 -342 -249 -378 -268 -22 -12
-22 -14 -20 -194 l3 -182 994 0 995 0 8 30 c4 17 19 91 32 165 14 74 39 211
56 304 19 101 28 172 22 178 -11 11 -108 38 -137 38 -15 0 -28 -16 -49 -60
-38 -80 -88 -123 -173 -151 -65 -21 -87 -23 -496 -27 -235 -2 -439 -1 -453 2
-23 6 -8 19 143 128 465 335 636 472 803 644 172 177 246 299 298 494 21 79
25 117 25 225 0 249 -62 415 -216 581 -191 205 -474 306 -852 302 -88 0 -173
-3 -190 -5z"/>
<path d="M6200 9557 c0 -2 -25 -152 -56 -333 -30 -181 -66 -396 -79 -479 -13
-82 -46 -283 -74 -445 -27 -162 -47 -298 -43 -301 9 -9 229 -79 247 -79 7 0
23 16 35 35 36 58 155 160 238 203 120 63 215 86 346 84 194 -3 300 -39 410
-143 111 -103 166 -247 166 -435 0 -182 -55 -330 -161 -435 -159 -158 -427
-193 -678 -89 -133 54 -234 143 -325 283 -31 47 -61 89 -66 92 -5 3 -23 -1
-39 -10 -27 -13 -299 -189 -308 -199 -16 -16 97 -177 186 -267 278 -280 715
-387 1194 -293 442 87 768 394 837 790 12 68 15 241 5 300 -51 316 -211 542
-480 677 -159 79 -313 111 -545 111 -233 0 -357 -26 -547 -114 -46 -21 -83
-36 -83 -32 0 4 23 134 52 289 l52 283 696 2 695 3 37 210 c20 116 39 229 43
253 l6 42 -880 0 c-485 0 -881 -1 -881 -3z"/>
<path d="M2364 9503 c-38 -26 -172 -118 -299 -204 -126 -87 -240 -165 -252
-173 l-22 -16 45 -127 c25 -71 55 -150 67 -177 l22 -48 183 121 c100 66 185
121 187 121 3 0 4 -404 3 -897 -3 -857 -4 -900 -22 -936 -30 -61 -77 -79 -226
-86 l-125 -6 -5 -148 c-3 -81 -4 -152 -2 -157 2 -6 239 -10 656 -10 l653 0 7
53 c8 66 8 215 0 245 -6 20 -12 22 -69 22 -140 0 -226 38 -252 111 -9 26 -12
323 -12 1197 l-1 1162 -234 0 -234 0 -68 -47z"/>
<path d="M4505 6476 c-147 -22 -275 -59 -275 -79 0 -25 82 -267 90 -267 5 0
49 12 97 26 65 18 115 26 188 27 155 3 165 -5 254 -189 l44 -92 -118 -228
c-360 -699 -538 -1004 -753 -1294 -306 -414 -543 -629 -806 -734 -207 -83
-404 -66 -513 43 -136 137 -162 447 -62 746 45 134 101 227 194 320 91 91 155
128 265 151 191 41 371 -18 428 -138 59 -127 25 -272 -101 -427 -94 -117 -284
-252 -456 -327 -96 -42 -105 -51 -90 -93 11 -32 13 -33 51 -27 62 10 275 85
378 132 210 99 440 281 539 429 68 102 95 192 89 303 -3 71 -10 100 -32 146
-57 115 -182 207 -341 251 -83 23 -314 31 -412 15 -345 -55 -641 -286 -804
-625 -152 -318 -171 -717 -45 -980 92 -192 251 -320 452 -361 120 -25 340 -15
459 20 365 109 657 364 988 861 171 258 434 710 762 1313 43 79 81 140 85 135
5 -4 88 -195 185 -423 97 -228 181 -424 187 -435 6 -11 15 -27 19 -35 15 -27
100 -212 136 -295 71 -166 169 -314 265 -400 56 -50 154 -111 195 -121 23 -6
6 -14 -97 -49 -160 -53 -287 -109 -436 -192 -154 -86 -442 -276 -471 -312 -11
-13 -38 -6 -220 52 -288 93 -373 110 -558 111 -206 1 -354 -37 -525 -133 -220
-124 -374 -292 -435 -475 -80 -237 -6 -440 195 -539 64 -32 66 -32 210 -31
131 0 153 3 223 27 146 51 295 131 456 246 l74 53 231 -72 c310 -97 301 -94
466 -139 288 -78 616 -136 920 -162 171 -15 557 -6 700 16 604 92 957 349 995
725 8 80 -12 186 -51 261 -35 70 -143 176 -219 216 -116 61 -221 85 -401 90
-340 11 -643 -58 -969 -222 -166 -83 -355 -200 -355 -220 0 -15 262 -95 308
-95 7 0 39 17 70 39 135 91 341 175 509 207 132 25 340 16 448 -19 138 -45
223 -122 246 -221 27 -121 -57 -237 -204 -281 -251 -75 -574 -21 -1187 200
-185 67 -635 237 -684 259 l-30 13 135 83 c280 175 550 293 846 370 267 69
684 99 974 69 128 -13 445 -63 519 -83 30 -8 57 -13 61 -11 9 6 -7 117 -31
215 -32 131 -28 126 -107 134 -140 14 -300 38 -353 53 -99 28 -225 100 -305
175 -121 113 -324 398 -376 528 -12 30 -36 87 -54 125 -18 39 -85 205 -150
370 -107 270 -213 535 -325 805 -22 52 -40 101 -42 109 -2 8 13 18 37 25 59
19 116 50 149 82 37 36 74 117 82 177 l7 45 -39 -9 c-116 -28 -463 -20 -959
21 -316 27 -700 34 -820 16z m1034 -368 c49 -116 197 -473 261 -628 188 -461
226 -556 276 -680 152 -376 294 -593 490 -746 46 -36 84 -68 84 -71 0 -8 -114
8 -190 28 -105 28 -161 62 -238 144 -110 116 -203 295 -387 742 -213 516 -503
1187 -530 1230 -8 12 -15 25 -15 28 0 3 51 5 114 5 l113 0 22 -52z m-1186
-2974 c49 -8 144 -31 210 -51 67 -19 130 -37 140 -40 9 -3 17 -8 17 -12 -1 -3
-45 -36 -99 -73 l-99 -66 -137 39 c-75 22 -178 49 -229 59 -101 22 -317 45
-347 37 -10 -3 -21 -2 -24 2 -6 11 135 81 207 101 81 24 242 25 361 4z m765
-245 c81 -33 194 -80 252 -104 305 -126 562 -223 755 -284 131 -42 190 -67
130 -57 -16 3 -55 8 -85 11 -317 36 -515 76 -870 176 -125 36 -522 168 -533
179 -5 4 30 33 78 65 47 32 88 62 91 66 10 16 35 9 182 -52z m-1158 -154 c87
-19 243 -64 253 -74 10 -10 -157 -111 -248 -150 -176 -74 -344 -64 -409 23
-31 41 -29 116 4 151 66 71 215 89 400 50z"/>
<path d="M1838 5993 c-5 -282 -13 -306 -127 -380 -2 -1 0 -34 4 -72 8 -80 10
-82 88 -55 64 22 129 82 158 146 21 48 24 72 29 248 3 107 8 194 13 193 4 -2
43 -3 87 -3 l80 0 0 -294 0 -294 59 -4 c101 -5 91 -45 91 373 l0 369 -239 0
-239 0 -4 -227z"/>
<path d="M2542 5850 l3 -370 233 -2 c133 -1 236 2 241 8 5 5 6 37 4 72 l-5 62
-159 0 -159 0 0 80 0 80 135 0 135 0 0 70 0 70 -135 0 -135 0 0 75 0 75 155 0
155 0 0 75 0 75 -235 0 -235 0 2 -370z"/>
<path d="M3160 6145 l0 -75 100 0 100 0 0 -300 0 -300 80 0 80 0 0 300 0 300
105 0 105 0 0 75 0 75 -285 0 -285 0 0 -75z"/>
</g>
</svg>
