<?xml version="1.0" standalone="no"?>
<!DOCTYPE svg PUBLIC "-//W3C//DTD SVG 20010904//EN"
 "http://www.w3.org/TR/2001/REC-SVG-20010904/DTD/svg10.dtd">
<svg version="1.0" xmlns="http://www.w3.org/2000/svg"
 width="853.000000pt" height="1280.000000pt" viewBox="0 0 853.000000 1280.000000"
 preserveAspectRatio="xMidYMid meet">

<g transform="translate(0.000000,1280.000000) scale(0.100000,-0.100000)"
fill="#000000" stroke="none">
<path d="M3805 9904 c-152 -17 -395 -84 -395 -109 0 -18 80 -185 88 -185 4 1
34 7 67 15 99 25 241 38 265 25 13 -7 57 -86 116 -207 l94 -197 -96 -240 c-53
-133 -107 -263 -119 -291 -146 -327 -196 -434 -300 -640 -281 -557 -525 -900
-766 -1077 -117 -86 -261 -128 -326 -94 -52 26 -102 94 -126 171 -30 95 -29
282 2 400 62 235 207 398 374 421 83 12 164 -36 191 -111 4 -10 7 -56 7 -100
0 -162 -92 -337 -270 -514 -56 -55 -101 -103 -101 -107 0 -13 70 5 122 31 135
68 291 216 367 349 24 42 57 115 73 163 28 79 30 95 26 192 -3 94 -6 111 -31
153 -66 113 -151 161 -296 166 -303 12 -576 -212 -696 -570 -125 -375 -63
-732 154 -882 73 -51 136 -68 256 -68 129 0 201 19 335 88 124 64 208 130 365
288 304 305 595 763 905 1426 51 107 105 229 121 270 16 41 33 81 38 89 6 10
72 -113 223 -420 286 -578 524 -1024 552 -1035 7 -3 105 -3 219 -2 l207 3 -76
130 c-110 187 -205 367 -384 725 -275 551 -680 1412 -680 1446 0 17 40 16 179
-3 l44 -6 49 -106 c28 -58 95 -200 150 -316 55 -115 123 -257 150 -315 415
-872 713 -1411 905 -1639 30 -35 52 -65 50 -68 -3 -2 -42 -7 -88 -11 l-82 -7
-30 -98 c-17 -53 -28 -99 -26 -101 4 -4 143 13 284 34 44 7 145 12 225 12 195
1 320 -26 461 -98 28 -14 53 -24 55 -22 2 2 1 50 -3 105 -7 119 12 104 -193
153 -156 37 -171 44 -265 116 -157 118 -300 339 -627 969 -142 273 -459 915
-615 1245 l-63 135 27 7 c16 3 70 13 122 22 52 8 98 19 103 24 5 5 -6 48 -24
103 l-33 94 -183 6 c-100 4 -226 12 -280 18 -324 38 -679 58 -797 45z"/>
<path d="M1671 7684 c-114 -105 -158 -244 -127 -393 9 -41 21 -79 27 -85 22
-22 132 127 165 224 22 64 28 280 8 300 -8 8 -28 -4 -73 -46z"/>
<path d="M6787 7727 c-14 -36 -17 -131 -8 -206 14 -108 51 -189 124 -266 l55
-60 12 30 c39 99 33 244 -15 340 -38 77 -157 191 -168 162z"/>
<path d="M1314 7458 c-4 -6 -8 -53 -7 -102 0 -147 45 -268 127 -344 25 -23 50
-42 55 -42 16 0 23 131 11 205 -18 113 -78 224 -150 275 -21 15 -31 17 -36 8z"/>
<path d="M7148 7419 c-78 -78 -110 -165 -116 -317 -5 -135 1 -148 51 -106 91
77 140 199 141 351 1 135 -6 142 -76 72z"/>
<path d="M4260 7200 c-183 -32 -319 -154 -336 -303 -15 -125 74 -205 194 -175
62 15 104 67 100 121 -3 40 -5 43 -60 70 -51 24 -58 31 -58 56 0 89 213 148
286 80 47 -43 57 -75 52 -164 -8 -156 -89 -271 -379 -538 -74 -69 -155 -148
-178 -176 -43 -51 -71 -124 -71 -187 l0 -31 158 -6 c86 -4 250 -7 364 -7 l207
0 15 53 c29 98 55 220 50 229 -10 16 -44 7 -89 -24 l-47 -33 -195 -3 c-113 -2
-199 0 -205 6 -12 12 73 86 282 243 91 68 195 154 232 192 198 199 193 454
-11 557 -90 45 -200 59 -311 40z"/>
<path d="M5194 7193 l-322 -3 -6 -58 c-15 -130 -93 -493 -120 -554 -6 -13 -1
-21 18 -29 23 -11 31 -9 71 20 67 48 128 72 203 77 57 5 74 2 112 -18 68 -35
90 -86 90 -208 0 -198 -81 -357 -196 -389 -51 -14 -59 -14 -95 5 -35 18 -54
57 -64 133 -4 31 -15 61 -26 72 -25 25 -85 25 -127 -1 -56 -34 -91 -146 -62
-200 13 -23 116 -83 196 -112 84 -30 243 -30 334 1 181 63 296 193 336 381 47
221 -40 393 -229 451 -84 26 -229 23 -319 -6 -32 -10 -60 -17 -62 -14 -4 4 48
222 57 236 3 4 109 4 235 -1 127 -5 241 -6 254 -3 32 8 55 52 73 137 19 91 19
90 -7 88 -13 -2 -168 -4 -344 -5z"/>
<path d="M3640 7140 c-46 -27 -120 -64 -163 -82 -82 -34 -97 -50 -97 -104 0
-24 1 -24 69 -18 41 4 71 3 74 -3 4 -6 -5 -70 -19 -144 -14 -74 -39 -208 -55
-299 -74 -421 -79 -437 -144 -464 -27 -12 -35 -21 -35 -40 0 -15 1 -29 3 -32
1 -3 90 -5 197 -5 301 0 270 -4 270 34 0 28 -4 34 -32 42 -32 10 -33 12 -36
66 -4 79 129 870 168 998 32 101 31 101 -47 100 -63 0 -75 -4 -153 -49z"/>
<path d="M1646 7079 c-72 -95 -92 -199 -63 -313 l13 -49 42 49 c62 72 85 127
90 212 4 71 -12 162 -28 162 -5 0 -29 -27 -54 -61z"/>
<path d="M6812 7091 c-7 -21 -12 -67 -12 -102 0 -77 35 -159 97 -229 l40 -45
12 53 c16 78 14 155 -8 212 -21 55 -88 150 -106 150 -7 0 -17 -17 -23 -39z"/>
<path d="M1234 6965 c-10 -24 38 -156 79 -217 60 -90 128 -143 212 -164 l28
-7 -6 52 c-9 73 -68 190 -123 246 -68 67 -179 120 -190 90z"/>
<path d="M7200 6943 c-98 -49 -185 -165 -209 -281 -15 -72 -14 -82 7 -82 65 0
197 111 245 206 25 49 57 146 57 171 0 21 -42 15 -100 -14z"/>
<path d="M6025 6850 c-88 -18 -195 -48 -245 -68 -36 -14 -164 -73 -169 -77 -4
-5 39 -114 52 -132 6 -9 29 -4 90 17 135 48 213 63 337 63 103 1 121 -2 170
-25 60 -28 113 -77 129 -121 46 -122 -52 -244 -235 -291 -82 -21 -262 -34
-364 -25 -154 13 -142 17 -173 -53 -15 -34 -24 -65 -20 -68 13 -12 124 -38
216 -51 126 -19 75 -31 -116 -27 l-148 3 -64 -76 -64 -76 47 -7 c277 -42 621
-14 821 66 199 79 331 191 409 347 36 73 37 78 37 186 0 108 -1 113 -38 188
-80 161 -253 248 -490 246 -51 0 -132 -9 -182 -19z"/>
<path d="M6747 6765 c-4 -9 4 -32 18 -53 13 -20 36 -73 51 -117 23 -69 26 -91
21 -162 -3 -62 -1 -85 9 -94 23 -19 47 54 48 151 0 73 -3 94 -28 146 -33 72
-110 155 -119 129z"/>
<path d="M1733 6728 c-64 -66 -97 -146 -96 -238 1 -72 26 -165 43 -158 19 7
95 108 113 148 36 80 30 274 -9 287 -5 2 -28 -16 -51 -39z"/>
<path d="M3160 6553 c-262 -17 -507 -80 -704 -179 -145 -73 -216 -123 -307
-213 -88 -88 -144 -190 -155 -282 -8 -74 16 -158 59 -206 l33 -35 184 30 c181
30 381 56 669 87 78 9 158 22 176 29 28 12 33 20 38 61 9 65 9 105 -2 105 -4
0 -50 -20 -102 -44 -202 -94 -357 -130 -525 -124 -93 3 -116 8 -147 27 -44 27
-57 48 -57 93 0 75 65 125 202 155 56 12 146 16 382 19 292 3 310 4 329 23 25
25 51 152 34 163 -15 10 -189 14 -374 9 -92 -2 -143 0 -143 7 0 25 362 91 501
92 46 0 47 0 57 43 6 23 14 66 18 95 l7 52 -64 -2 c-35 -1 -84 -3 -109 -5z"/>
<path d="M1250 6505 c0 -34 64 -136 119 -191 65 -64 152 -110 234 -122 69 -11
71 -6 27 86 -61 130 -197 231 -321 240 -51 4 -59 2 -59 -13z"/>
<path d="M7139 6501 c-64 -25 -132 -73 -172 -124 -45 -55 -110 -184 -97 -192
16 -10 119 15 175 41 91 43 216 186 231 264 l7 30 -49 0 c-27 -1 -70 -9 -95
-19z"/>
<path d="M1871 6389 c-54 -81 -75 -153 -69 -241 3 -37 3 -68 0 -68 -3 0 -11 8
-19 18 -28 32 30 -63 70 -117 40 -54 41 -54 50 -30 5 13 29 62 52 109 49 97
60 153 45 228 -11 63 -58 162 -76 162 -7 0 -31 -28 -53 -61z"/>
<path d="M6680 6048 c-43 -49 -54 -67 -52 -91 2 -17 4 -32 6 -34 7 -8 89 122
96 153 4 19 7 34 6 34 0 0 -26 -28 -56 -62z"/>
<path d="M1418 6054 c-10 -3 -18 -10 -18 -16 0 -6 35 -46 78 -88 94 -92 164
-130 257 -138 65 -5 155 12 155 29 0 5 -31 42 -69 82 -99 104 -155 130 -286
133 -55 2 -108 0 -117 -2z"/>
<path d="M6881 6044 c-25 -9 -61 -26 -80 -39 -39 -24 -161 -150 -161 -165 0
-16 83 -32 150 -28 88 5 163 43 252 126 80 76 97 100 77 113 -23 15 -190 9
-238 -7z"/>
<path d="M6367 5835 c-43 -19 -84 -35 -92 -35 -18 0 -28 -49 -20 -94 6 -31 11
-36 44 -41 20 -4 46 -8 58 -11 13 -2 32 5 48 18 44 39 86 199 53 198 -7 0 -48
-16 -91 -35z"/>
<path d="M3590 5734 c-290 -14 -592 -37 -790 -60 -522 -59 -1001 -141 -1148
-196 -80 -30 -83 -46 -29 -154 87 -175 101 -253 88 -481 -13 -214 -16 -333 -7
-333 3 0 21 7 38 16 159 82 574 160 973 184 200 11 446 26 695 41 474 28 1209
22 1850 -16 135 -8 294 -15 355 -15 394 0 971 -95 1150 -189 28 -14 54 -28 59
-30 5 -2 5 73 0 185 -15 309 -12 397 16 483 13 41 43 112 67 158 24 46 43 88
43 93 0 33 -92 73 -240 104 -842 174 -2131 260 -3120 210z m298 -291 l-3 -58
-92 -3 -93 -3 0 -194 0 -195 -75 0 -75 0 0 250 0 249 108 4 c59 1 135 4 170 5
l63 2 -3 -57z m212 -38 l0 -95 85 0 85 0 0 95 0 96 78 -3 77 -3 3 -247 2 -248
-80 0 -80 0 0 100 0 100 -85 0 -85 0 0 -100 0 -100 -75 0 -75 0 0 250 0 250
75 0 75 0 0 -95z m782 66 c5 -4 2 -27 -5 -51 l-13 -45 -92 0 -92 0 0 -42 0
-43 73 0 c93 0 99 -4 91 -64 l-7 -48 -79 7 -79 7 3 -48 3 -49 95 -3 c52 -2 98
-6 103 -11 4 -4 3 -29 -4 -55 l-12 -48 -166 7 c-91 4 -169 9 -173 12 -5 2 -8
115 -8 250 l0 246 178 -8 c97 -3 180 -10 184 -14z m-1574 -22 c47 -93 202
-452 197 -459 -4 -6 -39 -10 -80 -10 l-73 0 -22 45 c-21 44 -23 45 -69 45 -27
0 -68 -3 -93 -6 -43 -6 -46 -9 -62 -54 -15 -43 -21 -48 -54 -54 -56 -9 -112
-7 -112 4 0 19 186 478 202 497 8 10 107 22 143 18 6 -1 16 -12 23 -26z m1852
6 c91 -7 166 -14 168 -14 4 -2 2 -49 -4 -80 -6 -30 -8 -31 -60 -31 l-54 0 0
-185 0 -185 -61 0 c-101 0 -96 -10 -91 204 l5 186 -34 2 c-19 1 -45 2 -59 3
-28 1 -36 25 -25 81 7 40 -10 38 215 19z m-2297 -37 c9 -51 31 -467 25 -473
-7 -7 -132 -22 -146 -17 -8 2 -12 32 -13 80 -1 43 -4 102 -8 132 l-7 55 -74
-147 c-99 -196 -97 -195 -205 -15 l-80 132 -5 -145 c-6 -163 -2 -157 -97 -159
l-43 -1 0 254 0 254 28 6 c15 3 52 8 82 11 l56 7 78 -126 c43 -69 81 -128 85
-130 4 -3 40 62 81 145 72 144 76 149 110 155 19 3 42 7 50 9 8 1 29 3 46 4
28 1 32 -3 37 -31z m2876 -39 c99 -50 145 -124 145 -239 1 -132 -56 -207 -178
-232 -141 -28 -303 54 -336 169 -21 75 -23 119 -6 176 32 112 99 156 232 157
71 0 89 -4 143 -31z m344 -36 c4 -2 7 -45 7 -94 0 -102 -2 -101 101 -113 l56
-7 7 47 c3 26 6 67 6 91 l0 45 63 -7 c34 -4 65 -9 70 -12 10 -6 9 -481 -2
-487 -4 -3 -36 -1 -69 5 -56 10 -61 13 -67 41 -4 16 -4 55 0 87 8 69 3 75 -79
90 -92 17 -86 23 -86 -85 l0 -95 -57 7 c-96 11 -93 6 -93 152 0 70 3 178 7
240 l6 114 61 -7 c34 -4 64 -9 69 -12z"/>
<path d="M3191 5259 c-29 -87 -28 -89 22 -89 24 0 46 3 50 6 3 3 -3 30 -13 60
-32 93 -35 94 -59 23z"/>
<path d="M5575 5291 c-72 -30 -88 -160 -29 -230 48 -58 138 -50 168 14 19 40
21 120 3 155 -15 31 -73 70 -101 69 -12 0 -30 -4 -41 -8z"/>
<path d="M1745 5684 c-22 -8 -46 -16 -53 -19 -9 -3 -5 -12 15 -28 68 -55 70
-56 162 -38 47 9 86 21 88 26 1 6 -6 25 -17 43 -19 31 -21 32 -87 31 -38 0
-86 -7 -108 -15z"/>
<path d="M6570 5682 c-110 -42 -109 -43 45 -73 l140 -27 37 25 c63 43 66 51
22 70 -56 24 -187 27 -244 5z"/>
<path d="M2535 4653 c-87 -7 -285 -36 -375 -55 -52 -11 -115 -24 -140 -29
-123 -25 -310 -91 -310 -109 0 -42 195 -80 412 -80 140 0 223 11 430 56 121
26 180 34 258 34 l102 0 -3 78 c-6 115 -2 112 -183 110 -83 -1 -169 -3 -191
-5z"/>
<path d="M5636 4644 c-12 -11 -16 -36 -16 -93 l0 -78 128 -6 c86 -4 160 -14
231 -32 166 -41 276 -55 431 -55 201 0 391 35 398 73 8 40 -198 102 -532 161
-181 32 -328 46 -493 46 -106 0 -135 -3 -147 -16z"/>
<path d="M4182 4530 c-96 -23 -127 -139 -54 -203 29 -27 93 -33 132 -13 l32
16 -6 -32 c-9 -46 -42 -76 -103 -95 -69 -22 -74 -49 -8 -40 117 16 195 101
195 209 0 53 -30 121 -62 141 -30 19 -85 27 -126 17z m87 -39 c21 -21 36 -89
27 -119 -7 -21 -46 -42 -76 -42 -59 0 -84 107 -35 155 29 30 58 32 84 6z"/>
<path d="M4557 4530 c-132 -23 -159 -267 -38 -347 41 -28 85 -29 131 -4 48 25
70 67 77 148 5 57 2 77 -17 121 -30 70 -77 95 -153 82z m85 -70 c37 -73 15
-250 -33 -265 -59 -19 -94 32 -94 140 0 127 20 169 79 163 24 -2 35 -11 48
-38z"/>
<path d="M3893 4505 c-33 -15 -53 -30 -53 -41 0 -16 18 -16 64 2 14 5 16 -7
18 -97 1 -91 3 -151 7 -197 1 -8 11 -12 29 -10 l27 3 3 183 2 182 -22 0 c-13
0 -47 -11 -75 -25z"/>
<path d="M4858 4504 c-51 -26 -68 -61 -24 -50 13 3 31 9 40 12 14 5 16 -11 16
-145 l0 -151 29 0 c28 0 28 1 35 77 8 97 8 211 0 252 -8 39 -30 40 -96 5z"/>
<path d="M3569 4397 c-85 -57 -79 -175 11 -222 30 -16 77 -19 104 -9 29 11 16
24 -24 24 -61 0 -90 33 -90 103 0 69 26 97 88 97 42 0 56 13 26 24 -32 12 -82
5 -115 -17z"/>
</g>
</svg>
